<svg width="1440" height="5992" viewBox="0 0 1440 5992" fill="none" xmlns="http://www.w3.org/2000/svg">
<g clip-path="url(#clip0_130_868)">
<rect width="1440" height="5992" fill="#C1F2FF"/>
<line x1="89.0703" y1="-1537.43" x2="89.07" y2="5992" stroke="#72F3D7"/>
<line x1="28.501" y1="-1537.43" x2="28.5007" y2="5992" stroke="#72F3D7"/>
<line x1="150.153" y1="-1537.43" x2="150.153" y2="5992" stroke="#72F3D7"/>
<line x1="211.234" y1="-1537.43" x2="211.234" y2="5992" stroke="#72F3D7"/>
<line x1="272.315" y1="-1537.43" x2="272.315" y2="5992" stroke="#72F3D7"/>
<line x1="333.398" y1="-1537.43" x2="333.398" y2="5992" stroke="#72F3D7"/>
<line x1="394.479" y1="-1537.43" x2="394.479" y2="5992" stroke="#72F3D7"/>
<line x1="455.561" y1="-1537.43" x2="455.56" y2="5992" stroke="#72F3D7"/>
<line x1="516.644" y1="-1537.43" x2="516.643" y2="5992" stroke="#72F3D7"/>
<line x1="1006.82" y1="-1537.43" x2="1006.82" y2="5992" stroke="#72F3D7"/>
<line x1="577.726" y1="-1537.43" x2="577.725" y2="5992" stroke="#72F3D7"/>
<line x1="1067.9" y1="-1537.43" x2="1067.9" y2="5992" stroke="#72F3D7"/>
<line x1="638.807" y1="-1537.43" x2="638.806" y2="5992" stroke="#72F3D7"/>
<line x1="1128.98" y1="-1537.43" x2="1128.98" y2="5992" stroke="#72F3D7"/>
<line x1="699.888" y1="-1537.43" x2="699.887" y2="5992" stroke="#72F3D7"/>
<line x1="1190.06" y1="-1537.43" x2="1190.06" y2="5992" stroke="#72F3D7"/>
<line x1="760.971" y1="-1537.43" x2="760.97" y2="5992" stroke="#72F3D7"/>
<line x1="1251.15" y1="-1537.43" x2="1251.15" y2="5992" stroke="#72F3D7"/>
<line x1="822.052" y1="-1537.43" x2="822.051" y2="5992" stroke="#72F3D7"/>
<line x1="1312.23" y1="-1537.43" x2="1312.23" y2="5992" stroke="#72F3D7"/>
<line x1="883.133" y1="-1537.43" x2="883.133" y2="5992" stroke="#72F3D7"/>
<line x1="1373.31" y1="-1537.43" x2="1373.31" y2="5992" stroke="#72F3D7"/>
<line x1="944.215" y1="-1537.43" x2="944.215" y2="5992" stroke="#72F3D7"/>
<line x1="1434.39" y1="-1537.43" x2="1434.39" y2="5992" stroke="#72F3D7"/>
<line y1="8.96179" x2="1440" y2="8.96179" stroke="#72F3D7"/>
<line y1="70.0436" x2="1440" y2="70.0436" stroke="#72F3D7"/>
<line y1="131.125" x2="1440" y2="131.125" stroke="#72F3D7"/>
<line y1="192.207" x2="1440" y2="192.207" stroke="#72F3D7"/>
<line y1="253.288" x2="1440" y2="253.288" stroke="#72F3D7"/>
<line y1="314.37" x2="1440" y2="314.37" stroke="#72F3D7"/>
<line y1="375.452" x2="1440" y2="375.452" stroke="#72F3D7"/>
<line y1="436.533" x2="1440" y2="436.533" stroke="#72F3D7"/>
<line y1="497.615" x2="1440" y2="497.615" stroke="#72F3D7"/>
<line y1="558.697" x2="1440" y2="558.697" stroke="#72F3D7"/>
<line y1="619.779" x2="1440" y2="619.779" stroke="#72F3D7"/>
<line y1="680.86" x2="1440" y2="680.86" stroke="#72F3D7"/>
<line y1="741.942" x2="1440" y2="741.942" stroke="#72F3D7"/>
<line y1="803.023" x2="1440" y2="803.023" stroke="#72F3D7"/>
<line y1="864.105" x2="1440" y2="864.105" stroke="#72F3D7"/>
<line y1="925.187" x2="1440" y2="925.187" stroke="#72F3D7"/>
<line y1="986.268" x2="1440" y2="986.268" stroke="#72F3D7"/>
<line y1="1047.35" x2="1440" y2="1047.35" stroke="#72F3D7"/>
<line y1="1108.43" x2="1440" y2="1108.43" stroke="#72F3D7"/>
<line y1="1169.51" x2="1440" y2="1169.51" stroke="#72F3D7"/>
<line y1="1230.59" x2="1440" y2="1230.59" stroke="#72F3D7"/>
<line y1="1291.68" x2="1440" y2="1291.68" stroke="#72F3D7"/>
<line y1="1352.76" x2="1440" y2="1352.76" stroke="#72F3D7"/>
<line y1="1413.84" x2="1440" y2="1413.84" stroke="#72F3D7"/>
<line y1="1474.92" x2="1440" y2="1474.92" stroke="#72F3D7"/>
<line y1="1536" x2="1440" y2="1536" stroke="#72F3D7"/>
<line y1="1597.08" x2="1440" y2="1597.08" stroke="#72F3D7"/>
<line y1="1658.17" x2="1440" y2="1658.17" stroke="#72F3D7"/>
<line y1="1719.25" x2="1440" y2="1719.25" stroke="#72F3D7"/>
<line y1="1780.33" x2="1440" y2="1780.33" stroke="#72F3D7"/>
<line y1="1841.41" x2="1440" y2="1841.41" stroke="#72F3D7"/>
<line y1="1902.49" x2="1440" y2="1902.49" stroke="#72F3D7"/>
<line y1="1963.57" x2="1440" y2="1963.57" stroke="#72F3D7"/>
<line y1="2024.66" x2="1440" y2="2024.66" stroke="#72F3D7"/>
<line y1="2085.74" x2="1440" y2="2085.74" stroke="#72F3D7"/>
<line y1="2146.82" x2="1440" y2="2146.82" stroke="#72F3D7"/>
<line y1="2207.9" x2="1440" y2="2207.9" stroke="#72F3D7"/>
<line y1="2268.98" x2="1440" y2="2268.98" stroke="#72F3D7"/>
<line y1="2330.06" x2="1440" y2="2330.06" stroke="#72F3D7"/>
<line y1="2391.15" x2="1440" y2="2391.15" stroke="#72F3D7"/>
<line y1="2452.23" x2="1440" y2="2452.23" stroke="#72F3D7"/>
<line y1="2513.31" x2="1440" y2="2513.31" stroke="#72F3D7"/>
<line y1="2574.39" x2="1440" y2="2574.39" stroke="#72F3D7"/>
<line y1="2635.47" x2="1440" y2="2635.47" stroke="#72F3D7"/>
<line y1="2696.55" x2="1440" y2="2696.55" stroke="#72F3D7"/>
<line y1="2757.64" x2="1440" y2="2757.64" stroke="#72F3D7"/>
<line y1="2818.72" x2="1440" y2="2818.72" stroke="#72F3D7"/>
<line y1="2879.8" x2="1440" y2="2879.8" stroke="#72F3D7"/>
<line y1="2940.88" x2="1440" y2="2940.88" stroke="#72F3D7"/>
<line y1="3001.96" x2="1440" y2="3001.96" stroke="#72F3D7"/>
<line y1="3063.04" x2="1440" y2="3063.04" stroke="#72F3D7"/>
<line y1="3124.13" x2="1440" y2="3124.13" stroke="#72F3D7"/>
<line y1="3185.21" x2="1440" y2="3185.21" stroke="#72F3D7"/>
<line y1="3246.29" x2="1440" y2="3246.29" stroke="#72F3D7"/>
<line y1="3307.37" x2="1440" y2="3307.37" stroke="#72F3D7"/>
<line y1="3368.45" x2="1440" y2="3368.45" stroke="#72F3D7"/>
<line y1="3426.48" x2="1440" y2="3426.48" stroke="#72F3D7"/>
<line y1="3487.56" x2="1440" y2="3487.56" stroke="#72F3D7"/>
<line y1="3548.64" x2="1440" y2="3548.64" stroke="#72F3D7"/>
<line y1="3609.73" x2="1440" y2="3609.73" stroke="#72F3D7"/>
<line y1="3670.81" x2="1440" y2="3670.81" stroke="#72F3D7"/>
<line y1="3731.89" x2="1440" y2="3731.89" stroke="#72F3D7"/>
<line y1="3792.97" x2="1440" y2="3792.97" stroke="#72F3D7"/>
<line y1="3854.05" x2="1440" y2="3854.05" stroke="#72F3D7"/>
<line y1="3915.13" x2="1440" y2="3915.13" stroke="#72F3D7"/>
<line y1="3976.22" x2="1440" y2="3976.22" stroke="#72F3D7"/>
<line y1="4037.3" x2="1440" y2="4037.3" stroke="#72F3D7"/>
<line y1="4098.38" x2="1440" y2="4098.38" stroke="#72F3D7"/>
<line y1="4159.46" x2="1440" y2="4159.46" stroke="#72F3D7"/>
<line y1="4220.54" x2="1440" y2="4220.54" stroke="#72F3D7"/>
<line y1="4281.62" x2="1440" y2="4281.62" stroke="#72F3D7"/>
<line y1="4342.71" x2="1440" y2="4342.71" stroke="#72F3D7"/>
<line y1="4403.79" x2="1440" y2="4403.79" stroke="#72F3D7"/>
<line y1="4464.87" x2="1440" y2="4464.87" stroke="#72F3D7"/>
<line y1="4525.95" x2="1440" y2="4525.95" stroke="#72F3D7"/>
<line y1="4587.03" x2="1440" y2="4587.03" stroke="#72F3D7"/>
<line y1="4648.11" x2="1440" y2="4648.11" stroke="#72F3D7"/>
<line y1="4709.2" x2="1440" y2="4709.2" stroke="#72F3D7"/>
<line y1="4770.28" x2="1440" y2="4770.28" stroke="#72F3D7"/>
<line y1="4831.36" x2="1440" y2="4831.36" stroke="#72F3D7"/>
<line y1="4892.44" x2="1440" y2="4892.44" stroke="#72F3D7"/>
<line y1="4953.52" x2="1440" y2="4953.52" stroke="#72F3D7"/>
<line y1="5014.6" x2="1440" y2="5014.6" stroke="#72F3D7"/>
<line y1="5075.69" x2="1440" y2="5075.69" stroke="#72F3D7"/>
<line y1="5136.77" x2="1440" y2="5136.77" stroke="#72F3D7"/>
<line y1="5197.85" x2="1440" y2="5197.85" stroke="#72F3D7"/>
<line y1="5258.93" x2="1440" y2="5258.93" stroke="#72F3D7"/>
<line y1="5320.01" x2="1440" y2="5320.01" stroke="#72F3D7"/>
<line y1="5381.09" x2="1440" y2="5381.09" stroke="#72F3D7"/>
<line y1="5442.17" x2="1440" y2="5442.17" stroke="#72F3D7"/>
<line y1="5503.26" x2="1440" y2="5503.26" stroke="#72F3D7"/>
<line y1="5564.34" x2="1440" y2="5564.34" stroke="#72F3D7"/>
<line y1="5625.42" x2="1440" y2="5625.42" stroke="#72F3D7"/>
<line y1="5686.5" x2="1440" y2="5686.5" stroke="#72F3D7"/>
<line y1="5747.58" x2="1440" y2="5747.58" stroke="#72F3D7"/>
<line y1="5808.67" x2="1440" y2="5808.67" stroke="#72F3D7"/>
<line y1="5869.75" x2="1440" y2="5869.75" stroke="#72F3D7"/>
<line y1="5930.83" x2="1440" y2="5930.83" stroke="#72F3D7"/>
<line y1="5991.91" x2="1440" y2="5991.91" stroke="#72F3D7"/>
</g>
<defs>
<clipPath id="clip0_130_868">
<rect width="1440" height="5992" fill="white"/>
</clipPath>
</defs>
</svg>
